# xmcd CD database file
#
# Track frame offsets:
#	150
#	14275
#	32556
#	47964
#	67246
#	82402
#	100144
#	114233
#	128218
#	146624
#	164365
#	182120
#
# Disc length: 2594 seconds
#
# Revision: 3
# Processed by: cddbd v1.5.2PL0 Copyright (c) Steve Scherf et al.
# Submitted via: CDex 1.79
#
DISCID=aa0a200c
DTITLE=Various Artist - Girls_with guitars_vol_1
DYEAR=2004
DGENRE=Country
TTITLE0=Annie_Mosher - Penitentiary_Love
TTITLE1=Toni_Catlin - Undertow
TTITLE2=Kimberly_Dahme - You_barely_even_touched_me
TTITLE3=Cheley_Tackett - Just_feeling_a_little_linely
TTITLE4=Lani_Nash - Whatever_makes_you_happy
TTITLE5=Cindy_Kalmenson - Precious_Things
TTITLE6=Leigh_Skillington - Goin'_down
TTITLE7=Nancy_Terzian - One_little-step
TTITLE8=Tammy_Fowler - It's_only_love
TTITLE9=Deidre_Wilson - Alright_alright
TTITLE10=Robin_Ruddy - 20_20_Blind 
TTITLE11=Cathey_Stamps - Voodoo_Doll
EXTD=YEAR: 2004
EXTT0=
EXTT1=
EXTT2=
EXTT3=
EXTT4=
EXTT5=
EXTT6=
EXTT7=
EXTT8=
EXTT9=
EXTT10=
EXTT11=
PLAYORDER=
